<svg width="24" height="24" viewBox="0 0 24 24" fill="none" xmlns="http://www.w3.org/2000/svg">
<path d="M21 12C21 13.1819 20.7672 14.3522 20.3149 15.4442C19.8626 16.5361 19.1997 17.5282 18.364 18.364C17.5282 19.1997 16.5361 19.8626 15.4442 20.3149C14.3522 20.7672 13.1819 21 12 21C10.8181 21 9.64778 20.7672 8.55585 20.3149C7.46392 19.8626 6.47177 19.1997 5.63604 18.364C4.80031 17.5282 4.13738 16.5361 3.68508 15.4442C3.23279 14.3522 3 13.1819 3 12C3 9.61305 3.94821 7.32387 5.63604 5.63604C7.32387 3.94821 9.61305 3 12 3C14.3869 3 16.6761 3.94821 18.364 5.63604C20.0518 7.32387 21 9.61305 21 12Z" stroke="black" stroke-width="2" stroke-linecap="round" stroke-linejoin="round"/>
<path d="M17.01 14.922C17.066 15.0433 17.094 15.1647 17.094 15.286C17.094 15.5007 17.0053 15.6827 16.828 15.832C16.66 15.9813 16.464 16.056 16.24 16.056C16.0907 16.056 15.9507 16.0187 15.82 15.944C15.6893 15.86 15.5867 15.734 15.512 15.566L14.672 13.69H9.74398L8.90398 15.566C8.82932 15.734 8.72665 15.86 8.59598 15.944C8.46532 16.0187 8.32065 16.056 8.16198 16.056C7.94732 16.056 7.75132 15.9813 7.57398 15.832C7.39665 15.6827 7.30798 15.5007 7.30798 15.286C7.30798 15.1647 7.33598 15.0433 7.39198 14.922L11.256 6.62001C11.34 6.43334 11.466 6.29334 11.634 6.2C11.8113 6.09734 11.998 6.04601 12.194 6.04601C12.39 6.04601 12.572 6.09734 12.74 6.2C12.9173 6.29334 13.048 6.43334 13.132 6.62001L17.01 14.922ZM10.36 12.29H14.056L12.208 8.13201L10.36 12.29Z" fill="black"/>
</svg>
